<svg xmlns="http://www.w3.org/2000/svg" xmlns:xlink="http://www.w3.org/1999/xlink" width="111" height="145" viewBox="0 0 111 145"><defs><path id="xvjga" d="M1130.44 2740.06s-9.52 2.58-12.01 3.83c-9.23 4.6-9.43 13.09-9.43 13.09s15.57 9.02 54.52 9.02 54.48-9.02 54.48-9.02-.21-8.49-9.44-13.1c-2.53-1.26-12.36-3.88-12.36-3.88"/><path id="xvjgb" d="M1137.22 2740H1129s1.88 17 36.47 17c29.97 0 30.53-17 30.53-17h-7.72"/><path id="xvjgc" d="M1193.01 2692"/><path id="xvjgd" d="M1200 2664c3.75 2.5 5 7.38 5 13s-1.25 10.5-5 13"/><path id="xvjge" d="M1135 2741s4.94 10 29.6 10c24.67 0 24.4-10 24.4-10"/><path id="xvjgf" d="M1179 2720v12.22a9.87 9.87 0 0 0 10 9.75v.03"/><path id="xvjgg" d="M1135 2742h.03l-.02-.03c5.52 0 10-4.4 10-9.81V2724"/><path id="xvjgh" d="M1136 2685.01v-.01"/><path id="xvjgi" d="M1145 2707.3c5.67 8.34 14.7 14.7 28.01 14.7 1.85 0 4.2-1.07 6.66-3.04a30.34 30.34 0 0 0 4.96-5.16v-.01l.6-.8c.34-.48.69-.97 1.03-1.48l.35-.55.36-.57.44-.73.14-.24a73.76 73.76 0 0 0 1.51-2.85l.49-1.03.04-.1c.16-.36.32-.71.47-1.08.14-.35.3-.7.43-1.07l.03-.08.4-1.09a44.47 44.47 0 0 0 1.74-6.21l.2-1.11a35.64 35.64 0 0 0 .4-2.63l.09-.8v-.09l.02-.22.06-.59a48.55 48.55 0 0 0 .15-3.82V2660"/><path id="xvjgj" d="M1172 2688h4.39c2 0 3.61-1.66 3.61-3.7s-1.62-3.7-3.61-3.7l-1.72-8.6"/><path id="xvjgk" d="M1153 2671h14"/><path id="xvjgl" d="M1169 2667s-1.5-2.75-8.5-1.8c-5.1.7-8.5 1.8-8.5 1.8"/><path id="xvjgm" d="M1183 2671h11"/><path id="xvjgn" d="M1162 2699h22"/><path id="xvjgo" d="M1165 2699h16s-1.67 5-6.85 5-9.15-5-9.15-5z"/><path id="xvjgp" d="M1165 2623.06c-26.07-1.34-43 20.04-43 38.94v5"/><path id="xvjgq" d="M1185 2714a30.28 30.28 0 0 1-5 4.95v4.05"/><path id="xvjgr" d="M1122 2686.5v30.5s8.27 7 22.6 7v-.15l-.02-16.19V2668.45c0-4.6 3.7-8.34 8.3-8.34h.7a8.3 8.3 0 0 0 8.29-8.11h.02a8.3 8.3 0 0 0 8.29 8.05H1194"/><path id="xvjgs" d="M1182 2667s1.58-2.75 9.01-1.8c1.08.14 2.08.3 3 .45"/><path id="xvjgt" d="M1138 2631.87c4.96-2.36 8.99-2.22 12.13-1.03 5.87 2.2 8.65 8.05 8.65 8.05 2.52 4.1 3.18 9.71 3.22 12.83v.28"/><path id="xvjgu" d="M1137.1 2684.93c-1.02 4.08-2.93 7.07-5.7 7.07-.41 0-.8-.01-1.16-.04a8.86 8.86 0 0 1-3.24-.8c4.82-14.99.48-27.12.01-28.34 1.12-.53 2.55-.82 4.38-.82 2.7 0 4.56 2.78 5.6 6.66a35.2 35.2 0 0 1 .12 16.27z"/><path id="xvjgv" d="M1194 2637.74c-17.78-20.99-63-9.42-63 19.18v5.08"/><path id="xvjgw" d="M1153 2706a43.39 43.39 0 0 1-8.67-1.57c-.89-.27-1.72-.55-2.5-.86-10.55-4.1-11.83-11.57-11.83-11.57"/><path id="xvjgx" d="M1164 2705.87c0 1.18-1.03 2.13-2.3 2.13h-6.4c-1.27 0-2.3-.95-2.3-2.13v-.74c0-1.18 1.03-2.13 2.3-2.13h6.4c1.27 0 2.3.95 2.3 2.13z"/><path id="xvjgy" d="M1127 2663.1l-.04-.1a9.09 9.09 0 0 0-5.02 4.34c-1.41 2.58-1.94 5.96-1.94 9.66s.53 7.08 1.94 9.66c1.1 2 2.71 3.52 5.02 4.34a.56.56 0 0 0 .03-.1"/><path id="xvjgz" d="M1179.46 2723c13.8 0 20.54-5.01 20.54-5.01V2659.4c0-9.68-3.23-18.58-9.32-25.17-5.95-6.44-14.63-10.67-25.68-11.23"/><path id="xvjgA" d="M1162 2673a2 2 0 1 1-4 0 2 2 0 0 1 4 0"/><path id="xvjgB" d="M1191 2673a2 2 0 1 1-4 0 2 2 0 0 1 4 0"/></defs><g><g transform="matrix(-1 0 0 1 1218 -2622)"><g><use fill="#fff" fill-opacity="0" stroke="#939598" stroke-linecap="round" stroke-linejoin="round" stroke-miterlimit="50" stroke-width="2" xlink:href="#xvjga"/></g><g><use fill="#fff" fill-opacity="0" stroke="#939598" stroke-linecap="round" stroke-linejoin="round" stroke-miterlimit="50" stroke-width="2" xlink:href="#xvjgb"/></g><g><use fill="#fff" fill-opacity="0" stroke="#939598" stroke-linecap="round" stroke-linejoin="round" stroke-miterlimit="50" stroke-width="2" xlink:href="#xvjgc"/></g><g><use fill="#fff" fill-opacity="0" stroke="#f26722" stroke-linecap="round" stroke-linejoin="round" stroke-miterlimit="50" stroke-width="2" xlink:href="#xvjgd"/></g><g><use fill="#fff" fill-opacity="0" stroke="#939598" stroke-linejoin="round" stroke-miterlimit="50" stroke-width="2" xlink:href="#xvjge"/></g><g><use fill="#fff" fill-opacity="0" stroke="#939598" stroke-linejoin="round" stroke-miterlimit="50" stroke-width="2" xlink:href="#xvjgf"/></g><g><use fill="#fff" fill-opacity="0" stroke="#939598" stroke-linejoin="round" stroke-miterlimit="50" stroke-width="2" xlink:href="#xvjgg"/></g><g><use fill="#fff" fill-opacity="0" stroke="#939598" stroke-miterlimit="50" stroke-width="2" xlink:href="#xvjgh"/></g><g><use fill="#fff" fill-opacity="0" stroke="#939598" stroke-miterlimit="50" stroke-width="2" xlink:href="#xvjgh"/></g><g><use fill="#fff" fill-opacity="0" stroke="#939598" stroke-miterlimit="50" stroke-width="2" xlink:href="#xvjgi"/></g><g><use fill="#fff" fill-opacity="0" stroke="#939598" stroke-linecap="round" stroke-linejoin="round" stroke-miterlimit="50" stroke-width="2" xlink:href="#xvjgj"/></g><g><use fill="#fff" fill-opacity="0" stroke="#939598" stroke-linecap="round" stroke-miterlimit="50" stroke-width="2" xlink:href="#xvjgk"/></g><g><use fill="#fff" fill-opacity="0" stroke="#939598" stroke-linecap="round" stroke-linejoin="round" stroke-miterlimit="50" stroke-width="2" xlink:href="#xvjgl"/></g><g><use fill="#fff" fill-opacity="0" stroke="#939598" stroke-linecap="round" stroke-miterlimit="50" stroke-width="2" xlink:href="#xvjgm"/></g><g><use fill="#fff" fill-opacity="0" stroke="#939598" stroke-linecap="round" stroke-miterlimit="50" stroke-width="2" xlink:href="#xvjgn"/></g><g><use fill="#fff" fill-opacity="0" stroke="#939598" stroke-linecap="round" stroke-linejoin="round" stroke-miterlimit="50" stroke-width="2" xlink:href="#xvjgo"/></g><g><use fill="#fff" fill-opacity="0" stroke="#939598" stroke-linecap="round" stroke-linejoin="round" stroke-miterlimit="50" stroke-width="2" xlink:href="#xvjgp"/></g><g><use fill="#fff" fill-opacity="0" stroke="#939598" stroke-linecap="round" stroke-linejoin="round" stroke-miterlimit="50" stroke-width="2" xlink:href="#xvjgq"/></g><g><use fill="#fff" fill-opacity="0" stroke="#939598" stroke-linecap="round" stroke-linejoin="round" stroke-miterlimit="50" stroke-width="2" xlink:href="#xvjgr"/></g><g><use fill="#fff" fill-opacity="0" stroke="#939598" stroke-linecap="round" stroke-linejoin="round" stroke-miterlimit="50" stroke-width="2" xlink:href="#xvjgs"/></g><g><use fill="#fff" fill-opacity="0" stroke="#939598" stroke-linecap="round" stroke-linejoin="round" stroke-miterlimit="50" stroke-width="2" xlink:href="#xvjgt"/></g><g><use fill="#fff" fill-opacity="0" stroke="#f26722" stroke-linejoin="round" stroke-miterlimit="50" stroke-width="2" xlink:href="#xvjgu"/></g><g><use fill="#fff" fill-opacity="0" stroke="#f26722" stroke-linecap="round" stroke-linejoin="round" stroke-miterlimit="50" stroke-width="2" xlink:href="#xvjgv"/></g><g><use fill="#fff" fill-opacity="0" stroke="#f26722" stroke-linejoin="round" stroke-miterlimit="50" stroke-width="2" xlink:href="#xvjgw"/></g><g><use fill="#fff" fill-opacity="0" stroke="#f26722" stroke-linecap="round" stroke-linejoin="round" stroke-miterlimit="50" stroke-width="2" xlink:href="#xvjgx"/></g><g><use fill="#fff" fill-opacity="0" stroke="#f26722" stroke-linecap="round" stroke-linejoin="round" stroke-miterlimit="50" stroke-width="2" xlink:href="#xvjgy"/></g><g><use fill="#fff" fill-opacity="0" stroke="#939598" stroke-linecap="round" stroke-linejoin="round" stroke-miterlimit="50" stroke-width="2" xlink:href="#xvjgz"/></g><g><use fill="#939598" xlink:href="#xvjgA"/></g><g><use fill="#939598" xlink:href="#xvjgB"/></g></g></g></svg>