<svg xmlns="http://www.w3.org/2000/svg" xmlns:xlink="http://www.w3.org/1999/xlink" width="130" height="119" viewBox="0 0 130 119"><defs><path id="308ba" d="M1134 2883c0-1.1.9-2 2-2h74a2 2 0 0 1 2 2v94a2 2 0 0 1-2 2h-74a2 2 0 0 1-2-2z"/><path id="308bb" d="M1156 2881h34v7a4 4 0 0 1-4 4h-26a4 4 0 0 1-4-4z"/><path id="308be" d="M1143 2905h62"/><path id="308bf" d="M1143 2917h62"/><path id="308bg" d="M1143 2929h62"/><path id="308bh" d="M1143 2941h62"/><path id="308bi" d="M1135 2886l-14-5-31 92 75 25 6-20"/><path id="308bj" d="M1120 2913l15 5"/><path id="308bk" d="M1117 2924l18 6"/><path id="308bl" d="M1113 2936l22 7"/><path id="308bm" d="M1110 2947l25 9"/><path id="308bn" d="M1106 2960l29 10"/><path id="308bo" d="M1202.21 2950.38s-6.4 4.57-15.72 4.76v13.7c0 5 2.27 9.73 6.18 12.88l9.54 7.69 9.54-7.69a16.54 16.54 0 0 0 6.18-12.88v-13.7c-9.32-.2-15.72-4.76-15.72-4.76z"/><path id="308bp" d="M1195.16 2968.74l6.85 9.83 9.41-17.35"/><clipPath id="308bc"><use fill="#fff" xlink:href="#308ba"/></clipPath><clipPath id="308bd"><use fill="#fff" xlink:href="#308bb"/></clipPath></defs><g><g transform="translate(-1089 -2880)"><g><use fill="#fff" fill-opacity="0" stroke="#939598" stroke-miterlimit="50" stroke-width="4" clip-path="url(&quot;#308bc&quot;)" xlink:href="#308ba"/></g><g><use fill="#fff" fill-opacity="0" stroke="#939598" stroke-miterlimit="50" stroke-width="4" clip-path="url(&quot;#308bd&quot;)" xlink:href="#308bb"/></g><g><use fill="#fff" fill-opacity="0" stroke="#939598" stroke-miterlimit="50" stroke-width="2" xlink:href="#308be"/></g><g><use fill="#fff" fill-opacity="0" stroke="#939598" stroke-miterlimit="50" stroke-width="2" xlink:href="#308bf"/></g><g><use fill="#fff" fill-opacity="0" stroke="#939598" stroke-miterlimit="50" stroke-width="2" xlink:href="#308bg"/></g><g><use fill="#fff" fill-opacity="0" stroke="#939598" stroke-miterlimit="50" stroke-width="2" xlink:href="#308bh"/></g><g><use fill="#fff" fill-opacity="0" stroke="#939598" stroke-miterlimit="50" stroke-width="2" xlink:href="#308bi"/></g><g><use fill="#fff" fill-opacity="0" stroke="#939598" stroke-miterlimit="50" stroke-width="2" xlink:href="#308bj"/></g><g><use fill="#fff" fill-opacity="0" stroke="#939598" stroke-miterlimit="50" stroke-width="2" xlink:href="#308bk"/></g><g><use fill="#fff" fill-opacity="0" stroke="#939598" stroke-miterlimit="50" stroke-width="2" xlink:href="#308bl"/></g><g><use fill="#fff" fill-opacity="0" stroke="#939598" stroke-miterlimit="50" stroke-width="2" xlink:href="#308bm"/></g><g><use fill="#fff" fill-opacity="0" stroke="#939598" stroke-miterlimit="50" stroke-width="2" xlink:href="#308bn"/></g><g><g><use fill="#fff" xlink:href="#308bo"/><use fill="#fff" fill-opacity="0" stroke="#f26722" stroke-linecap="round" stroke-linejoin="round" stroke-miterlimit="50" stroke-width="2" xlink:href="#308bo"/></g><g><use fill="#fff" fill-opacity="0" stroke="#f26722" stroke-linecap="round" stroke-linejoin="round" stroke-miterlimit="50" stroke-width="2" xlink:href="#308bp"/></g></g></g></g></svg>