<svg width="24" height="30" viewBox="0 0 24 30" version="1.1" xmlns="http://www.w3.org/2000/svg" xmlns:xlink="http://www.w3.org/1999/xlink">
<title>loupe</title>
<desc>Created using Figma</desc>
<g id="Canvas" transform="translate(-4874 501)">
<g id="loupe">
<g id="Vector">
<use xlink:href="#path0_fill" transform="translate(4874 -500.66)" fill="#D19349"/>
</g>
</g>
</g>
<defs>
<path id="path0_fill" d="M 10.7855 0.0804126C 13.3575 0.434335 15.551 1.76357 17.031 3.66084C 18.5111 5.56892 19.2681 8.03489 18.9434 10.6184C 18.814 11.6045 18.5437 12.5265 18.1543 13.3735C 17.8194 14.0813 17.4089 14.7351 16.933 15.3248L 23.0383 25.3271L 23.0383 25.3379C 23.427 25.9701 23.5135 26.6996 23.3514 27.3642C 23.1785 28.0288 22.7571 28.6401 22.1199 29.0258L 22.109 29.0258L 21.7203 29.2723L 21.7094 29.2723C 21.0613 29.658 20.326 29.7437 19.6561 29.583C 18.9863 29.4114 18.3701 28.9933 17.9814 28.3611L 17.9814 28.3503L 11.9953 18.5411C 11.4983 18.6695 10.9904 18.766 10.4717 18.8201C 9.79091 18.8842 9.08834 18.8842 8.37556 18.7985C 8.33267 18.7985 8.27821 18.7877 8.23532 18.7769C 5.66332 18.4337 3.46983 17.1045 1.98981 15.2066C 0.509784 13.3194 -0.236355 10.8751 0.0665938 8.31317C 0.0665938 8.27062 0.0774864 8.21658 0.088379 8.17403C 0.434217 5.62228 1.78489 3.43525 3.68632 1.97768C 5.58843 0.508632 8.05151 -0.241765 10.6344 0.0696058C 10.6882 0.0696058 10.7311 0.0804126 10.7855 0.0804126ZM 12.2764 13.4491C 12.6223 13.2134 13.0975 13.2992 13.3351 13.6423C 13.5727 13.9854 13.4753 14.4568 13.1295 14.6932C 12.4923 15.1221 11.7788 15.4436 11.0116 15.626C 10.277 15.8084 9.49885 15.8509 8.69893 15.7543C 7.40204 15.5936 6.24607 15.0573 5.32769 14.2751C 4.37663 13.4606 3.67475 12.388 3.32891 11.1878C 3.22066 10.7805 3.44805 10.3624 3.85856 10.255C 4.25818 10.1368 4.67958 10.3732 4.79872 10.7697C 5.0581 11.6916 5.59864 12.5062 6.32231 13.1283C 7.02488 13.7287 7.89969 14.136 8.89431 14.2542C 9.49953 14.34 10.0939 14.2968 10.6555 14.1684C 11.2389 14.0279 11.7904 13.7814 12.2764 13.4491ZM 15.8206 4.5828C 14.5673 2.97461 12.7087 1.84935 10.5153 1.5704C 8.33267 1.29145 6.23654 1.92432 4.61559 3.16778C 3.00554 4.41124 1.86046 6.26596 1.57929 8.43137C 1.30902 10.6076 1.93603 12.6872 3.18935 14.2846C 4.44267 15.8928 6.3121 17.0187 8.49469 17.297L 8.50559 17.297C 9.1217 17.372 9.72691 17.3828 10.3212 17.3186C 10.9265 17.2544 11.5208 17.1254 12.0933 16.9329C 12.4174 16.8256 12.7959 16.9546 12.9899 17.2544L 19.2463 27.5142C 19.2681 27.5567 19.3001 27.5891 19.311 27.6323C 19.4839 27.8789 19.7433 28.0504 20.0244 28.1146C 20.3056 28.1788 20.6079 28.1572 20.8781 28.0072C 20.921 27.9856 20.9537 27.9647 20.9973 27.943L 21.2676 27.7715C 21.3104 27.7499 21.3431 27.7289 21.3867 27.7073C 21.6352 27.5358 21.8081 27.2892 21.8728 26.9995C 21.9374 26.7205 21.9157 26.4206 21.7645 26.1525C 21.7427 26.1201 21.7216 26.0775 21.6999 26.0451L 15.3897 15.7104C 15.3788 15.6888 15.3679 15.678 15.3679 15.6679L 15.357 15.6571L 15.357 15.6463C 15.1841 15.3673 15.2059 15.0033 15.4326 14.7459C 15.9731 14.1563 16.4265 13.4808 16.7723 12.7413C 17.0964 12.0334 17.334 11.2513 17.4313 10.436C 17.7118 8.25981 17.0739 6.18018 15.8206 4.5828Z"/>
</defs>
</svg>
