<svg xmlns="http://www.w3.org/2000/svg" xmlns:xlink="http://www.w3.org/1999/xlink" width="34" height="34" viewBox="0 0 34 34"><defs><path id="ztdba" d="M264 317.72v-7.62"/><path id="ztdbb" d="M261.72 311.62l2.29 2.29 2.28-2.29"/><path id="ztdbc" d="M261.98 318.86l-6.6-3.81"/><path id="ztdbd" d="M255.55 317.79l3.12-.84-.83-3.12"/><path id="ztdbe" d="M265.78 318.86l6.6-3.81"/><path id="ztdbf" d="M272.2 317.79l-3.12-.84.84-3.12"/><path id="ztdbg" d="M264 322.29v7.62"/><path id="ztdbh" d="M261.71 328.39l2.29-2.29 2.28 2.29"/><path id="ztdbi" d="M261.98 320.76l-6.6 3.81"/><path id="ztdbj" d="M255.55 321.83l3.12.84-.83 3.12"/><path id="ztdbk" d="M265.78 320.76l6.6 3.81"/><path id="ztdbl" d="M272.2 321.83l-3.12.84.84 3.12"/><path id="ztdbm" d="M254.86 329.14h-4.57v4.57"/><path id="ztdbn" d="M249.42 326.5a15.9 15.9 0 0 1 3.3-17.85 16.01 16.01 0 0 1 22.6.04l2.05 2.05"/><path id="ztdbo" d="M278.56 313.52a15.9 15.9 0 0 1-3.3 17.85 16.01 16.01 0 0 1-22.6-.03l-2.06-2.06"/><path id="ztdbp" d="M273.14 310.86h4.57v-4.57"/></defs><g><g transform="translate(-247 -303)"><g><use fill="#fff" fill-opacity="0" stroke="#939598" stroke-linecap="round" stroke-linejoin="round" stroke-miterlimit="50" stroke-width="2" xlink:href="#ztdba"/></g><g><use fill="#fff" fill-opacity="0" stroke="#939598" stroke-linecap="round" stroke-linejoin="round" stroke-miterlimit="50" stroke-width="2" xlink:href="#ztdbb"/></g><g><use fill="#fff" fill-opacity="0" stroke="#939598" stroke-linecap="round" stroke-linejoin="round" stroke-miterlimit="50" stroke-width="2" xlink:href="#ztdbc"/></g><g><use fill="#fff" fill-opacity="0" stroke="#939598" stroke-linecap="round" stroke-linejoin="round" stroke-miterlimit="50" stroke-width="2" xlink:href="#ztdbd"/></g><g><use fill="#fff" fill-opacity="0" stroke="#939598" stroke-linecap="round" stroke-linejoin="round" stroke-miterlimit="50" stroke-width="2" xlink:href="#ztdbe"/></g><g><use fill="#fff" fill-opacity="0" stroke="#939598" stroke-linecap="round" stroke-linejoin="round" stroke-miterlimit="50" stroke-width="2" xlink:href="#ztdbf"/></g><g><use fill="#fff" fill-opacity="0" stroke="#939598" stroke-linecap="round" stroke-linejoin="round" stroke-miterlimit="50" stroke-width="2" xlink:href="#ztdbg"/></g><g><use fill="#fff" fill-opacity="0" stroke="#939598" stroke-linecap="round" stroke-linejoin="round" stroke-miterlimit="50" stroke-width="2" xlink:href="#ztdbh"/></g><g><use fill="#fff" fill-opacity="0" stroke="#939598" stroke-linecap="round" stroke-linejoin="round" stroke-miterlimit="50" stroke-width="2" xlink:href="#ztdbi"/></g><g><use fill="#fff" fill-opacity="0" stroke="#939598" stroke-linecap="round" stroke-linejoin="round" stroke-miterlimit="50" stroke-width="2" xlink:href="#ztdbj"/></g><g><use fill="#fff" fill-opacity="0" stroke="#939598" stroke-linecap="round" stroke-linejoin="round" stroke-miterlimit="50" stroke-width="2" xlink:href="#ztdbk"/></g><g><use fill="#fff" fill-opacity="0" stroke="#939598" stroke-linecap="round" stroke-linejoin="round" stroke-miterlimit="50" stroke-width="2" xlink:href="#ztdbl"/></g><g><use fill="#fff" fill-opacity="0" stroke="#939598" stroke-miterlimit="50" stroke-width="2" xlink:href="#ztdbm"/></g><g><use fill="#fff" fill-opacity="0" stroke="#939598" stroke-miterlimit="50" stroke-width="2" xlink:href="#ztdbn"/></g><g><use fill="#fff" fill-opacity="0" stroke="#939598" stroke-miterlimit="50" stroke-width="2" xlink:href="#ztdbo"/></g><g><use fill="#fff" fill-opacity="0" stroke="#939598" stroke-miterlimit="50" stroke-width="2" xlink:href="#ztdbp"/></g></g></g></svg>