<svg xmlns="http://www.w3.org/2000/svg" xmlns:xlink="http://www.w3.org/1999/xlink" width="281" height="125" viewBox="0 0 281 125"><defs><path id="mw3ga" d="M434 986v-15s19.08.67 28 15"/><path id="mw3gb" d="M466.32 1033h6.36a2.36 2.36 0 0 1 2.32 2.4v4.2c0 1.32-1.04 2.4-2.32 2.4h-6.36a2.36 2.36 0 0 1-2.32-2.4v-4.2c0-1.32 1.04-2.4 2.32-2.4z"/><path id="mw3gc" d="M460 1044a10 10 0 1 1-20 0 10 10 0 0 1 20 0z"/><path id="mw3gd" d="M463.53 1038.9h-5.43"/><path id="mw3ge" d="M407.16 1034H439v-4h-34"/><path id="mw3gf" d="M441 1034c-3.52 2.88-5 6.5-5 12"/><path id="mw3gg" d="M410 1044h26"/><path id="mw3gh" d="M473 1032v-7.36c0-9.42-1.2-18.8-3.55-27.92l-1.47-5.85a6.57 6.57 0 0 0-6.4-4.87H434v43.82"/><path id="mw3gi" d="M472 1011c-4.63 0-9.24-.66-13.68-1.96l-3.34-.99a6.9 6.9 0 0 1-4.98-6.55v-7.86c0-.9.75-1.64 1.66-1.64h16.21"/><path id="mw3gj" d="M471.98 1023H469v5h3"/><path id="mw3gk" d="M439 986v51"/><path id="mw3gl" d="M464 992s3 11.1 3 19"/><path id="mw3gm" d="M404.78 1030H430v-64H257v21.4"/><path id="mw3gn" d="M350 1004v-14s18.4.63 27 14"/><path id="mw3go" d="M374.18 1057H350v-53h24.68a4.44 4.44 0 0 1 3.97 2.89l4.32 13.08a7.23 7.23 0 0 0 3.72 3.99l15.88 6.14a7.42 7.42 0 0 1 4.45 4.93l2.98 10.62"/><path id="mw3gp" d="M404.32 1045h6.36c.62 0 1.2.25 1.64.7.44.46.68 1.07.68 1.7v4.2c0 1.32-1.04 2.4-2.32 2.4h-6.36a2.36 2.36 0 0 1-2.32-2.4v-4.2c0-1.32 1.04-2.4 2.32-2.4z"/><path id="mw3gq" d="M398 1057.01a10 10 0 1 1-20-.02 10 10 0 0 1 20 .02z"/><path id="mw3gr" d="M402 1052h-6"/><path id="mw3gs" d="M323.8 1047H350v-4l-30 .05"/><path id="mw3gt" d="M379 1047c-3.52 2.88-5 6.5-5 12"/><path id="mw3gu" d="M334 1057h16"/><path id="mw3gv" d="M407.5 1035h-4.26c-.38 0-.73.16-.96.44-.24.27-.33.64-.25.98l.56 2.62c.11.56.62.96 1.22.96H409"/><path id="mw3gw" d="M354 1004v13.93a4.02 4.02 0 0 0 3.97 4.07H384"/><path id="mw3gx" d="M371 1004l6 17.66V1049"/><path id="mw3gy" d="M383 1034h3"/><path id="mw3gz" d="M319.81 1043l25.19-.05V987H226v21.63"/><path id="mw3gA" d="M288 1039v-14s19.08.63 28 14"/><path id="mw3gB" d="M294.17 1078H288v-39h28.04l20.96 20.67v7.33"/><path id="mw3gC" d="M329.32 1067h6.36a2.36 2.36 0 0 1 2.32 2.4v4.2c0 1.32-1.04 2.4-2.32 2.4h-6.36c-.62 0-1.2-.25-1.64-.7a2.45 2.45 0 0 1-.68-1.7v-4.2c0-.63.24-1.24.68-1.7.43-.45 1.02-.7 1.64-.7z"/><path id="mw3gD" d="M317 1079a10 10 0 1 1-20 0 10 10 0 0 1 20 0z"/><path id="mw3gE" d="M245 1079a10 10 0 1 1-20 0 10 10 0 0 1 20 0z"/><path id="mw3gF" d="M327 1073h-11"/><path id="mw3gG" d="M199 1069h89v-4h-89v4z"/><path id="mw3gH" d="M208 1075v-6"/><path id="mw3gI" d="M221 1078h-8v-9"/><path id="mw3gJ" d="M226 1069c-3.53 2.63-5 6.32-5 12"/><path id="mw3gK" d="M299 1068c-3.52 2.88-5 6.5-5 12"/><path id="mw3gL" d="M245 1078h43"/><path id="mw3gM" d="M294 1039v12h22l5.47 4H332"/><path id="mw3gN" d="M336 1060a6.9 6.9 0 0 0-7 6.8v.2"/><path id="mw3gO" d="M196 1065h88v-56h-88v56z"/></defs><g><g transform="translate(-195 -965)"><g><use fill="#fff" fill-opacity="0" stroke="#ff9900" stroke-linecap="round" stroke-linejoin="round" stroke-miterlimit="50" stroke-width="2" xlink:href="#mw3ga"/></g><g><use fill="#fff" fill-opacity="0" stroke="#939598" stroke-linecap="round" stroke-linejoin="round" stroke-miterlimit="50" stroke-width="2" xlink:href="#mw3gb"/></g><g><use fill="#fff" fill-opacity="0" stroke="#939598" stroke-linecap="round" stroke-linejoin="round" stroke-miterlimit="50" stroke-width="2" xlink:href="#mw3gc"/></g><g><use fill="#fff" fill-opacity="0" stroke="#939598" stroke-linecap="round" stroke-linejoin="round" stroke-miterlimit="50" stroke-width="2" xlink:href="#mw3gd"/></g><g><use fill="#fff" fill-opacity="0" stroke="#939598" stroke-linecap="round" stroke-linejoin="round" stroke-miterlimit="50" stroke-width="2" xlink:href="#mw3ge"/></g><g><use fill="#fff" fill-opacity="0" stroke="#939598" stroke-linecap="round" stroke-linejoin="round" stroke-miterlimit="50" stroke-width="2" xlink:href="#mw3gf"/></g><g><use fill="#fff" fill-opacity="0" stroke="#939598" stroke-linecap="round" stroke-linejoin="round" stroke-miterlimit="50" stroke-width="2" xlink:href="#mw3gg"/></g><g><use fill="#fff" fill-opacity="0" stroke="#939598" stroke-linecap="round" stroke-linejoin="round" stroke-miterlimit="50" stroke-width="2" xlink:href="#mw3gh"/></g><g><use fill="#fff" fill-opacity="0" stroke="#939598" stroke-linecap="round" stroke-linejoin="round" stroke-miterlimit="50" stroke-width="2" xlink:href="#mw3gi"/></g><g><use fill="#fff" fill-opacity="0" stroke="#939598" stroke-linecap="round" stroke-linejoin="round" stroke-miterlimit="50" stroke-width="2" xlink:href="#mw3gj"/></g><g><use fill="#fff" fill-opacity="0" stroke="#939598" stroke-linecap="round" stroke-linejoin="round" stroke-miterlimit="50" stroke-width="2" xlink:href="#mw3gk"/></g><g><use fill="#fff" fill-opacity="0" stroke="#939598" stroke-linecap="round" stroke-linejoin="round" stroke-miterlimit="50" stroke-width="2" xlink:href="#mw3gl"/></g><g><use fill="#fff" fill-opacity="0" stroke="#ff9900" stroke-linecap="round" stroke-linejoin="round" stroke-miterlimit="50" stroke-width="2" xlink:href="#mw3gm"/></g><g><use fill="#fff" fill-opacity="0" stroke="#ff9900" stroke-linecap="round" stroke-linejoin="round" stroke-miterlimit="50" stroke-width="2" xlink:href="#mw3gn"/></g><g><use fill="#fff" fill-opacity="0" stroke="#939598" stroke-linecap="round" stroke-linejoin="round" stroke-miterlimit="50" stroke-width="2" xlink:href="#mw3go"/></g><g><use fill="#fff" fill-opacity="0" stroke="#939598" stroke-linecap="round" stroke-linejoin="round" stroke-miterlimit="50" stroke-width="2" xlink:href="#mw3gp"/></g><g><use fill="#fff" fill-opacity="0" stroke="#939598" stroke-linecap="round" stroke-linejoin="round" stroke-miterlimit="50" stroke-width="2" xlink:href="#mw3gq"/></g><g><use fill="#fff" fill-opacity="0" stroke="#939598" stroke-linecap="round" stroke-linejoin="round" stroke-miterlimit="50" stroke-width="2" xlink:href="#mw3gr"/></g><g><use fill="#fff" fill-opacity="0" stroke="#939598" stroke-linecap="round" stroke-linejoin="round" stroke-miterlimit="50" stroke-width="2" xlink:href="#mw3gs"/></g><g><use fill="#fff" fill-opacity="0" stroke="#939598" stroke-linecap="round" stroke-linejoin="round" stroke-miterlimit="50" stroke-width="2" xlink:href="#mw3gt"/></g><g><use fill="#fff" fill-opacity="0" stroke="#939598" stroke-linecap="round" stroke-linejoin="round" stroke-miterlimit="50" stroke-width="2" xlink:href="#mw3gu"/></g><g><use fill="#fff" fill-opacity="0" stroke="#939598" stroke-linecap="round" stroke-linejoin="round" stroke-miterlimit="50" stroke-width="2" xlink:href="#mw3gv"/></g><g><use fill="#fff" fill-opacity="0" stroke="#939598" stroke-linecap="round" stroke-linejoin="round" stroke-miterlimit="50" stroke-width="2" xlink:href="#mw3gw"/></g><g><use fill="#fff" fill-opacity="0" stroke="#939598" stroke-linecap="round" stroke-linejoin="round" stroke-miterlimit="50" stroke-width="2" xlink:href="#mw3gx"/></g><g><use fill="#fff" fill-opacity="0" stroke="#939598" stroke-linecap="round" stroke-linejoin="round" stroke-miterlimit="50" stroke-width="2" xlink:href="#mw3gy"/></g><g><use fill="#fff" fill-opacity="0" stroke="#ff9900" stroke-linecap="round" stroke-linejoin="round" stroke-miterlimit="50" stroke-width="2" xlink:href="#mw3gz"/></g><g><use fill="#fff" fill-opacity="0" stroke="#ff9900" stroke-linecap="round" stroke-linejoin="round" stroke-miterlimit="50" stroke-width="2" xlink:href="#mw3gA"/></g><g><use fill="#fff" fill-opacity="0" stroke="#939598" stroke-linecap="round" stroke-linejoin="round" stroke-miterlimit="50" stroke-width="2" xlink:href="#mw3gB"/></g><g><use fill="#fff" fill-opacity="0" stroke="#939598" stroke-linecap="round" stroke-linejoin="round" stroke-miterlimit="50" stroke-width="2" xlink:href="#mw3gC"/></g><g><use fill="#fff" fill-opacity="0" stroke="#939598" stroke-linecap="round" stroke-linejoin="round" stroke-miterlimit="50" stroke-width="2" xlink:href="#mw3gD"/></g><g><use fill="#fff" fill-opacity="0" stroke="#939598" stroke-linecap="round" stroke-linejoin="round" stroke-miterlimit="50" stroke-width="2" xlink:href="#mw3gE"/></g><g><use fill="#fff" fill-opacity="0" stroke="#939598" stroke-linecap="round" stroke-linejoin="round" stroke-miterlimit="50" stroke-width="2" xlink:href="#mw3gF"/></g><g><use fill="#fff" fill-opacity="0" stroke="#939598" stroke-linecap="round" stroke-linejoin="round" stroke-miterlimit="50" stroke-width="2" xlink:href="#mw3gG"/></g><g><use fill="#fff" fill-opacity="0" stroke="#939598" stroke-linecap="round" stroke-linejoin="round" stroke-miterlimit="50" stroke-width="2" xlink:href="#mw3gH"/></g><g><use fill="#fff" fill-opacity="0" stroke="#939598" stroke-linecap="round" stroke-linejoin="round" stroke-miterlimit="50" stroke-width="2" xlink:href="#mw3gI"/></g><g><use fill="#fff" fill-opacity="0" stroke="#939598" stroke-linecap="round" stroke-linejoin="round" stroke-miterlimit="50" stroke-width="2" xlink:href="#mw3gJ"/></g><g><use fill="#fff" fill-opacity="0" stroke="#939598" stroke-linecap="round" stroke-linejoin="round" stroke-miterlimit="50" stroke-width="2" xlink:href="#mw3gK"/></g><g><use fill="#fff" fill-opacity="0" stroke="#939598" stroke-linecap="round" stroke-linejoin="round" stroke-miterlimit="50" stroke-width="2" xlink:href="#mw3gL"/></g><g><use fill="#fff" fill-opacity="0" stroke="#939598" stroke-linecap="round" stroke-linejoin="round" stroke-miterlimit="50" stroke-width="2" xlink:href="#mw3gM"/></g><g><use fill="#fff" fill-opacity="0" stroke="#939598" stroke-linecap="round" stroke-linejoin="round" stroke-miterlimit="50" stroke-width="2" xlink:href="#mw3gN"/></g><g><use fill="#fff" fill-opacity="0" stroke="#ff9900" stroke-linecap="round" stroke-linejoin="round" stroke-miterlimit="50" stroke-width="2" xlink:href="#mw3gO"/></g></g></g></svg>