<svg xmlns="http://www.w3.org/2000/svg" xmlns:xlink="http://www.w3.org/1999/xlink" width="181" height="116" viewBox="0 0 181 116"><defs><path id="ybxpa" d="M329.21 519.5s8.07 3.8 14.79 4.55c5.34.6 11.66-.26 11.17-7.65 2.4 1.05 8.2 2.9 11.64-2.06 3.4-4.9-.2-8.35-2.5-9.91h-.01s9.34 6.15 14.09 0c5.24-6.78-4.32-12.01-4.32-12.01s12.2 8.24 16.94 2.1c3.27-4.23.75-8.16-1.58-10.29"/><path id="ybxpb" d="M313.6 438.05c-.3.43-6.23-.72-11.99-1.9-5.99-1.22-12.28-7.26-12.28-7.26l-23.04 41.75 10.07 11.29"/><path id="ybxpc" d="M364.3 504.43c-.92-.62-20.39-11.5-20.39-11.5"/><path id="ybxpd" d="M336.3 506.33s18.2 9.77 18.88 10.07"/><path id="ybxpe" d="M374.07 492.42l-22.34-13.87"/><path id="ybxpf" d="M334.35 447s17.9 9.03 29.53 16.94c16.9 11.5 25.55 20.29 25.55 20.29s13.4-9.3 14.9-13.59l-22.72-40.4s-5.02 3.54-9.68 3.36c-4.54-.19-19.08-9.53-52.12-1.38-2.2.55-3.65 2.28-3.65 2.28-2.4 3.32-14.96 25.52-14.96 25.52s3.2 3.32 9.12 2.48c14.51-2.07 16.2-13.45 16.2-13.45s4.85-.38 7.83-2.05z"/><path id="ybxpg" d="M286.48 495.4a8.08 8.08 0 0 1-13.04-9.55l2.5-3.4a8.08 8.08 0 0 1 13.04 9.55z"/><path id="ybxph" d="M325.58 524.07a8.08 8.08 0 0 1-13.04-9.56l4.02-5.47a8.09 8.09 0 0 1 13.03 9.56z"/><path id="ybxpi" d="M297.59 507.59a8.08 8.08 0 0 1-13.04-9.56l9.12-12.24a8.08 8.08 0 1 1 13.03 9.56z"/><path id="ybxpj" d="M311.14 516.44a8.09 8.09 0 0 1-13.04-9.56l7.81-10.65a8.08 8.08 0 0 1 13.03 9.56z"/><path id="ybxpk" d="M424.67 463.31c.74 1.33.1 3.1-1.43 3.95l-13.2 7.3c-1.52.85-3.35.46-4.09-.87l-25.54-46.1c-.73-1.33-.09-3.1 1.44-3.95l13.2-7.3c1.52-.85 3.36-.46 4.1.87z"/><path id="ybxpl" d="M246.4 462.33a3.17 3.17 0 0 0 1.23 4.3l13.2 7.3c1.52.86 3.45.3 4.3-1.23l25.94-46.7c.85-1.52.3-3.45-1.24-4.3l-13.19-7.3a3.17 3.17 0 0 0-4.3 1.23z"/></defs><g><g transform="translate(-245 -413)"><g><use fill="#fff" fill-opacity="0" stroke="#939598" stroke-linejoin="round" stroke-miterlimit="50" stroke-width="2" xlink:href="#ybxpa"/></g><g><use fill="#fff" fill-opacity="0" stroke="#939598" stroke-linejoin="round" stroke-miterlimit="50" stroke-width="2" xlink:href="#ybxpb"/></g><g><use fill="#fff" fill-opacity="0" stroke="#939598" stroke-linecap="round" stroke-linejoin="round" stroke-miterlimit="50" stroke-width="2" xlink:href="#ybxpc"/></g><g><use fill="#fff" fill-opacity="0" stroke="#939598" stroke-linecap="round" stroke-linejoin="round" stroke-miterlimit="50" stroke-width="2" xlink:href="#ybxpd"/></g><g><use fill="#fff" fill-opacity="0" stroke="#939598" stroke-linecap="round" stroke-linejoin="round" stroke-miterlimit="50" stroke-width="2" xlink:href="#ybxpe"/></g><g><use fill="#fff" fill-opacity="0" stroke="#939598" stroke-linejoin="round" stroke-miterlimit="50" stroke-width="2" xlink:href="#ybxpf"/></g><g><use fill="#fff" fill-opacity="0" stroke="#939598" stroke-linejoin="round" stroke-miterlimit="50" stroke-width="2" xlink:href="#ybxpg"/></g><g><use fill="#fff" fill-opacity="0" stroke="#939598" stroke-linejoin="round" stroke-miterlimit="50" stroke-width="2" xlink:href="#ybxph"/></g><g><use fill="#fff" fill-opacity="0" stroke="#939598" stroke-linejoin="round" stroke-miterlimit="50" stroke-width="2" xlink:href="#ybxpi"/></g><g><use fill="#fff" fill-opacity="0" stroke="#939598" stroke-linejoin="round" stroke-miterlimit="50" stroke-width="2" xlink:href="#ybxpj"/></g><g><use fill="#fff" fill-opacity="0" stroke="#f26722" stroke-linejoin="round" stroke-miterlimit="50" stroke-width="2" xlink:href="#ybxpk"/></g><g><use fill="#fff" fill-opacity="0" stroke="#f26722" stroke-linejoin="round" stroke-miterlimit="50" stroke-width="2" xlink:href="#ybxpl"/></g></g></g></svg>