<svg xmlns="http://www.w3.org/2000/svg" xmlns:xlink="http://www.w3.org/1999/xlink" width="147" height="151" viewBox="0 0 147 151"><defs><path id="jssca" d="M393.52 442.43v-.01"/><path id="jsscb" d="M396.54 459.54l-.01-.04"/><path id="jsscc" d="M282.63 515.7v-.01"/><path id="jsscd" d="M285.93 534.42l1.8 10.28 43-7.58"/><path id="jssce" d="M392 433.87l-5.36-30.42-51.95 9.16h-.01l-14.06 2.49-54.05 9.52 12.9 73.15"/><path id="jsscf" d="M395.56 525.69l.03-.01 12.22-2.16-9.78-55.46"/><path id="jsscg" d="M395.03 450.98l-.01-.03"/><path id="jssch" d="M284.1 500.8c15.1 5.66 38.6 14.03 45.43 14.03 5.65 0 10.71-2.27 15.82-4.38 4.23-1.74 8.49-3.38 13.16-3.56 10.33-.4 11.22.26 19.45 1.6 3 .47 7.32-1.5 7.54 1.06.4 4.7-4.22 7.26-8.34 7.26h-10.72s3.98 7.65 10.72 8.79c5.58.94 15.23.33 18.4.1.01-.02.02-.02.03-.02.65-.04 1.03-.08 1.03-.08s0 6.46-6.3 8.38l-.01-.02v.02c-.14 4.43-2.34 6.14-5.51 7.07-1.36 5.37-5.82 6.91-10.8 7.34 0 0-.06.1-.24.27l-.02.02c-.95 1-5 4.15-17.01 2.97-7.4-.72-17.7-10.88-25.99-14.53a14.65 14.65 0 0 0-4.39-1.26c-5.2-.47-25.12-1.05-40.41-1.44-1.8-.05-3.52-.1-5.15-.13"/><path id="jssci" d="M384.79 541.05c-2.55.74-5.73.98-8.95 1.7"/><path id="jsscj" d="M374 548.39c-2.35.2 1.47.47-1.02.17"/><path id="jssck" d="M390.32 533.98c-.4.12-.8.22-1.24.3-9.02 1.66-11.12 1.59-11.12 1.59"/><path id="jsscl" d="M339.63 440.71l-14.06 2.48-4.96-28.12 14.06-2.48z"/><path id="jsscm" d="M398.97 459.05a4.34 4.34 0 0 1 1.68 8.52l-2.22.45a4.34 4.34 0 0 1-1.7-8.52z"/><path id="jsscn" d="M393.88 433.5a4.35 4.35 0 0 1 1.7 8.52l-3.58.7a4.34 4.34 0 0 1-1.7-8.52z"/><path id="jssco" d="M398.99 450.2a4.34 4.34 0 1 1 1.7 8.51l-8.06 1.54a4.34 4.34 0 1 1-1.7-8.52z"/><path id="jsscp" d="M396.83 441.76a4.34 4.34 0 1 1 1.69 8.52l-6.96 1.38a4.34 4.34 0 0 1-1.7-8.51z"/><path id="jsscq" d="M333.2 441.52l12.16 68.94"/><path id="jsscr" d="M320.4 484.25l-30.1 5.3"/><path id="jsscs" d="M313.95 479.72l-3.43-19.47"/><path id="jssct" d="M318.52 464.41l-8.3-5.81-5.81 8.3"/><path id="jsscu" d="M294.81 483.09l-3.43-19.47"/><path id="jsscv" d="M299.38 467.78l-8.3-5.81-5.81 8.3"/><path id="jsscw" d="M280.29 539.37l-16.84-1.56 3.96-43.76 16.84 5.2z"/></defs><g><g transform="translate(-262 -402)"><g><use fill="#fff" fill-opacity="0" stroke="#939598" stroke-linecap="round" stroke-linejoin="round" stroke-miterlimit="50" stroke-width="2" xlink:href="#jssca"/></g><g><use fill="#fff" fill-opacity="0" stroke="#939598" stroke-linecap="round" stroke-linejoin="round" stroke-miterlimit="50" stroke-width="2" xlink:href="#jsscb"/></g><g><use fill="#fff" fill-opacity="0" stroke="#939598" stroke-linecap="round" stroke-linejoin="round" stroke-miterlimit="50" stroke-width="2" xlink:href="#jsscc"/></g><g><use fill="#fff" fill-opacity="0" stroke="#939598" stroke-linecap="round" stroke-linejoin="round" stroke-miterlimit="50" stroke-width="2" xlink:href="#jsscd"/></g><g><g><use fill="#fff" fill-opacity="0" stroke="#939598" stroke-linecap="round" stroke-linejoin="round" stroke-miterlimit="50" stroke-width="2" xlink:href="#jssce"/></g><g><use fill="#fff" fill-opacity="0" stroke="#939598" stroke-linecap="round" stroke-linejoin="round" stroke-miterlimit="50" stroke-width="2" xlink:href="#jsscf"/></g><g><use fill="#fff" fill-opacity="0" stroke="#939598" stroke-linecap="round" stroke-linejoin="round" stroke-miterlimit="50" stroke-width="2" xlink:href="#jsscg"/></g><g><use fill="#fff" fill-opacity="0" stroke="#939598" stroke-linecap="round" stroke-linejoin="round" stroke-miterlimit="50" stroke-width="2" xlink:href="#jssch"/></g><g><use fill="#fff" fill-opacity="0" stroke="#939598" stroke-linecap="round" stroke-linejoin="round" stroke-miterlimit="50" stroke-width="2" xlink:href="#jssci"/></g><g><use fill="#fff" fill-opacity="0" stroke="#939598" stroke-linecap="round" stroke-linejoin="round" stroke-miterlimit="50" stroke-width="2" xlink:href="#jsscj"/></g><g><use fill="#fff" fill-opacity="0" stroke="#939598" stroke-linecap="round" stroke-linejoin="round" stroke-miterlimit="50" stroke-width="2" xlink:href="#jssck"/></g><g><use fill="#fff" fill-opacity="0" stroke="#939598" stroke-linecap="round" stroke-linejoin="round" stroke-miterlimit="50" stroke-width="2" xlink:href="#jsscl"/></g><g><use fill="#fff" fill-opacity="0" stroke="#939598" stroke-linejoin="round" stroke-miterlimit="50" stroke-width="2" xlink:href="#jsscm"/></g><g><use fill="#fff" fill-opacity="0" stroke="#939598" stroke-linejoin="round" stroke-miterlimit="50" stroke-width="2" xlink:href="#jsscn"/></g><g><use fill="#fff" fill-opacity="0" stroke="#939598" stroke-linejoin="round" stroke-miterlimit="50" stroke-width="2" xlink:href="#jssco"/></g><g><use fill="#fff" fill-opacity="0" stroke="#939598" stroke-linejoin="round" stroke-miterlimit="50" stroke-width="2" xlink:href="#jsscp"/></g><g><use fill="#fff" fill-opacity="0" stroke="#939598" stroke-miterlimit="50" stroke-width="2" xlink:href="#jsscq"/></g><g><use fill="#fff" fill-opacity="0" stroke="#f26722" stroke-miterlimit="50" stroke-width="2" xlink:href="#jsscr"/></g><g><use fill="#fff" fill-opacity="0" stroke="#f26722" stroke-miterlimit="50" stroke-width="2" xlink:href="#jsscs"/></g><g><use fill="#fff" fill-opacity="0" stroke="#f26722" stroke-miterlimit="50" stroke-width="2" xlink:href="#jssct"/></g><g><use fill="#fff" fill-opacity="0" stroke="#f26722" stroke-miterlimit="50" stroke-width="2" xlink:href="#jsscu"/></g><g><use fill="#fff" fill-opacity="0" stroke="#f26722" stroke-miterlimit="50" stroke-width="2" xlink:href="#jsscv"/></g><g><use fill="#fff" fill-opacity="0" stroke="#939598" stroke-linecap="round" stroke-linejoin="round" stroke-miterlimit="50" stroke-width="2" xlink:href="#jsscw"/></g></g></g></g></svg>