<svg xmlns="http://www.w3.org/2000/svg" xmlns:xlink="http://www.w3.org/1999/xlink" width="156" height="142" viewBox="0 0 156 142"><defs><path id="7dcla" d="M312 410c0-1.1.9-2 2-2h89a2 2 0 0 1 2 2v112a2 2 0 0 1-2 2h-89a2 2 0 0 1-2-2z"/><path id="7dclb" d="M337 408h40v9a4 4 0 0 1-4 4h-32a4 4 0 0 1-4-4z"/><path id="7dclc" d="M255.72 548.8V405.2h101.56v143.6zm3.25-32.91a2 2 0 0 0 1.28 2.52l84.65 27.5a2 2 0 0 0 2.52-1.28l6.7-20.63H314a2 2 0 0 1-2-2v-7.79l-35.52-11.54.61-1.9L312 512.1v-14.52l-30.52-9.92.62-1.9 29.9 9.72v-12.53l-25.52-8.29.62-1.9 24.9 8.1v-13.2l-21.52-7 .62-1.9 20.9 6.8v-11.88l-18.52-6.02.62-1.9 17.9 5.82v-38.34l-15.9-5.16a2 2 0 0 0-2.52 1.28z"/><path id="7dclf" d="M322 436h73"/><path id="7dclg" d="M322 450h73"/><path id="7dclh" d="M322 464h73"/><path id="7dcli" d="M322 479h73"/><path id="7dclj" d="M293.58 409.37a2 2 0 0 1 2.52-1.28l15.9 5.16v38.34l-17.9-5.82-.62 1.9L312 453.7v11.87l-20.9-6.79-.62 1.9 21.52 7v13.2l-24.9-8.1-.62 1.9 25.52 8.3v12.52l-29.9-9.72-.62 1.9L312 497.6v14.52l-34.9-11.34-.62 1.9L312 514.21V522c0 1.1.9 2 2 2h40.12l-6.7 20.63a2 2 0 0 1-2.52 1.28l-84.64-27.5a2 2 0 0 1-1.29-2.52z"/><path id="7dcll" d="M392.4 490s-7.5 5.38-18.4 5.6v16.16c0 5.9 2.66 11.47 7.23 15.18L392.4 536l11.17-9.06a19.55 19.55 0 0 0 7.23-15.18V495.6a35.43 35.43 0 0 1-18.4-5.61z"/><path id="7dclm" d="M384 511.67l8 11.33 11-20"/><clipPath id="7dcld"><use fill="#fff" xlink:href="#7dcla"/></clipPath><clipPath id="7dcle"><use fill="#fff" xlink:href="#7dclb"/></clipPath><clipPath id="7dclk"><use fill="#fff" xlink:href="#7dclc"/></clipPath></defs><g><g transform="translate(-256 -406)"><g><g><use fill="#fff" fill-opacity="0" stroke="#939598" stroke-miterlimit="50" stroke-width="4" clip-path="url(&quot;#7dcld&quot;)" xlink:href="#7dcla"/></g><g><use fill="#fff" fill-opacity="0" stroke="#939598" stroke-miterlimit="50" stroke-width="4" clip-path="url(&quot;#7dcle&quot;)" xlink:href="#7dclb"/></g><g><use fill="#fff" fill-opacity="0" stroke="#939598" stroke-miterlimit="50" stroke-width="2" xlink:href="#7dclf"/></g><g><use fill="#fff" fill-opacity="0" stroke="#939598" stroke-miterlimit="50" stroke-width="2" xlink:href="#7dclg"/></g><g><use fill="#fff" fill-opacity="0" stroke="#939598" stroke-miterlimit="50" stroke-width="2" xlink:href="#7dclh"/></g><g><use fill="#fff" fill-opacity="0" stroke="#939598" stroke-miterlimit="50" stroke-width="2" xlink:href="#7dcli"/></g><g><use fill="#fff" fill-opacity="0" stroke="#939598" stroke-miterlimit="50" stroke-width="4" clip-path="url(&quot;#7dclk&quot;)" xlink:href="#7dclj"/></g><g><g><use fill="#fff" xlink:href="#7dcll"/><use fill="#fff" fill-opacity="0" stroke="#f26722" stroke-linecap="round" stroke-linejoin="round" stroke-miterlimit="50" stroke-width="2" xlink:href="#7dcll"/></g><g><use fill="#fff" fill-opacity="0" stroke="#f26722" stroke-linecap="round" stroke-linejoin="round" stroke-miterlimit="50" stroke-width="2" xlink:href="#7dclm"/></g></g></g></g></g></svg>