<svg xmlns="http://www.w3.org/2000/svg" xmlns:xlink="http://www.w3.org/1999/xlink" width="161" height="161" viewBox="0 0 161 161"><defs><path id="t9z1a" d="M371 418v-20"/><path id="t9z1b" d="M384 420l9-15"/><path id="t9z1c" d="M394 430l15-9"/><path id="t9z1d" d="M398 445.5h17"/><path id="t9z1e" d="M368 457v-20H265.04A9.86 9.86 0 0 0 255 447"/><path id="t9z1f" d="M385 558H265c-5.63 0-10-4.4-10-9.98V447c0 5.7 4.37 10.1 10 9.98.1.11 120 0 120 0v71.09z"/><path id="t9z1g" d="M388.73 525H339.8A18.82 18.82 0 0 1 321 506c0-10.5 8.28-19 18.81-19h48.92c3.26 0 6.27 3.1 6.27 6.33v25.34c0 3.23-3.01 6.33-6.27 6.33"/><path id="t9z1h" d="M388.73 525H339.8A18.82 18.82 0 0 1 321 506c0-10.5 8.28-19 18.81-19h48.92c3.26 0 6.27 3.1 6.27 6.33v25.34c0 3.23-3.01 6.33-6.27 6.33z"/><path id="t9z1i" d="M334 505.62c0-5.04 3.58-8.62 8.62-8.62 3.8 0 7.38 3.58 7.38 8.62 0 3.8-3.58 7.38-7.38 7.38-5.04 0-8.62-3.58-8.62-7.38"/><path id="t9z1j" d="M334 505.62c0-5.04 3.58-8.62 8.62-8.62 3.8 0 7.38 3.58 7.38 8.62 0 3.8-3.58 7.38-7.38 7.38-5.04 0-8.62-3.58-8.62-7.38z"/></defs><g><g transform="translate(-254 -398)"><g><use fill="#fff" fill-opacity="0" stroke="#939598" stroke-miterlimit="50" stroke-width="2" xlink:href="#t9z1a"/></g><g><use fill="#fff" fill-opacity="0" stroke="#939598" stroke-miterlimit="50" stroke-width="2" xlink:href="#t9z1b"/></g><g><use fill="#fff" fill-opacity="0" stroke="#939598" stroke-miterlimit="50" stroke-width="2" xlink:href="#t9z1c"/></g><g><use fill="#fff" fill-opacity="0" stroke="#939598" stroke-miterlimit="50" stroke-width="2" xlink:href="#t9z1d"/></g><g><use fill="#fff" fill-opacity="0" stroke="#939598" stroke-miterlimit="50" stroke-width="2" xlink:href="#t9z1e"/></g><g><use fill="#fff" fill-opacity="0" stroke="#939598" stroke-miterlimit="50" stroke-width="2" xlink:href="#t9z1f"/></g><g><use fill="#fff" xlink:href="#t9z1g"/></g><g><use fill="#fff" fill-opacity="0" stroke="#f26722" stroke-miterlimit="50" stroke-width="2" xlink:href="#t9z1h"/></g><g><use fill="#fff" xlink:href="#t9z1i"/></g><g><use fill="#fff" fill-opacity="0" stroke="#f26722" stroke-miterlimit="50" stroke-width="2" xlink:href="#t9z1j"/></g></g></g></svg>