<svg xmlns="http://www.w3.org/2000/svg" xmlns:xlink="http://www.w3.org/1999/xlink" width="281" height="125" viewBox="0 0 281 125"><defs><path id="en39a" d="M434 436v-15s19.08.67 28 15"/><path id="en39b" d="M466.32 483h6.36a2.36 2.36 0 0 1 2.32 2.4v4.2c0 1.32-1.04 2.4-2.32 2.4h-6.36a2.36 2.36 0 0 1-2.32-2.4v-4.2c0-1.32 1.04-2.4 2.32-2.4z"/><path id="en39c" d="M460 494a10 10 0 1 1-20 0 10 10 0 0 1 20 0z"/><path id="en39d" d="M463.53 488.9h-5.43"/><path id="en39e" d="M407.16 484H439v-4h-34"/><path id="en39f" d="M441 484c-3.52 2.88-5 6.5-5 12"/><path id="en39g" d="M410 494h26"/><path id="en39h" d="M473 482v-7.36c0-9.42-1.2-18.8-3.55-27.92l-1.47-5.85a6.57 6.57 0 0 0-6.4-4.87H434v43.82"/><path id="en39i" d="M472 461c-4.63 0-9.24-.66-13.68-1.96l-3.34-.99a6.9 6.9 0 0 1-4.98-6.55v-7.86c0-.9.75-1.64 1.66-1.64h16.21"/><path id="en39j" d="M471.98 473H469v5h3"/><path id="en39k" d="M439 436v51"/><path id="en39l" d="M464 442s3 11.1 3 19"/><path id="en39m" d="M404.78 480H430v-64H257v21.4"/><path id="en39n" d="M350 454v-14s18.4.63 27 14"/><path id="en39o" d="M374.18 507H350v-53h24.68a4.44 4.44 0 0 1 3.97 2.89l4.32 13.08a7.23 7.23 0 0 0 3.72 3.99l15.88 6.14a7.42 7.42 0 0 1 4.45 4.93l2.98 10.62"/><path id="en39p" d="M404.32 495h6.36c.62 0 1.2.25 1.64.7.44.46.68 1.07.68 1.7v4.2c0 1.32-1.04 2.4-2.32 2.4h-6.36a2.36 2.36 0 0 1-2.32-2.4v-4.2c0-1.32 1.04-2.4 2.32-2.4z"/><path id="en39q" d="M398 507.01a10 10 0 1 1-20-.02 10 10 0 0 1 20 .02z"/><path id="en39r" d="M402 502h-6"/><path id="en39s" d="M323.8 497H350v-4l-30 .05"/><path id="en39t" d="M379 497c-3.52 2.88-5 6.5-5 12"/><path id="en39u" d="M334 507h16"/><path id="en39v" d="M407.5 485h-4.26c-.38 0-.73.16-.96.44-.24.27-.33.64-.25.98l.56 2.62c.11.56.62.96 1.22.96H409"/><path id="en39w" d="M354 454v13.93a4.02 4.02 0 0 0 3.97 4.07H384"/><path id="en39x" d="M371 454l6 17.66V499"/><path id="en39y" d="M383 484h3"/><path id="en39z" d="M319.81 493l25.19-.05V437H226v21.63"/><path id="en39A" d="M288 489v-14s19.08.63 28 14"/><path id="en39B" d="M294.17 528H288v-39h28.04L337 509.67V517"/><path id="en39C" d="M329.32 517h6.36a2.36 2.36 0 0 1 2.32 2.4v4.2c0 1.32-1.04 2.4-2.32 2.4h-6.36c-.62 0-1.2-.25-1.64-.7a2.45 2.45 0 0 1-.68-1.7v-4.2c0-.63.24-1.24.68-1.7.43-.45 1.02-.7 1.64-.7z"/><path id="en39D" d="M317 529a10 10 0 1 1-20 0 10 10 0 0 1 20 0z"/><path id="en39E" d="M245 529a10 10 0 1 1-20 0 10 10 0 0 1 20 0z"/><path id="en39F" d="M327 523h-11"/><path id="en39G" d="M199 519h89v-4h-89v4z"/><path id="en39H" d="M208 525v-6"/><path id="en39I" d="M221 528h-8v-9"/><path id="en39J" d="M226 519c-3.53 2.63-5 6.32-5 12"/><path id="en39K" d="M299 518c-3.52 2.88-5 6.5-5 12"/><path id="en39L" d="M245 528h43"/><path id="en39M" d="M294 489v12h22l5.47 4H332"/><path id="en39N" d="M336 510a6.9 6.9 0 0 0-7 6.8v.2"/><path id="en39O" d="M196 515h88v-56h-88v56z"/></defs><g><g transform="translate(-195 -415)"><g><use fill="#fff" fill-opacity="0" stroke="#f26722" stroke-linecap="round" stroke-linejoin="round" stroke-miterlimit="50" stroke-width="2" xlink:href="#en39a"/></g><g><use fill="#fff" fill-opacity="0" stroke="#939598" stroke-linecap="round" stroke-linejoin="round" stroke-miterlimit="50" stroke-width="2" xlink:href="#en39b"/></g><g><use fill="#fff" fill-opacity="0" stroke="#939598" stroke-linecap="round" stroke-linejoin="round" stroke-miterlimit="50" stroke-width="2" xlink:href="#en39c"/></g><g><use fill="#fff" fill-opacity="0" stroke="#939598" stroke-linecap="round" stroke-linejoin="round" stroke-miterlimit="50" stroke-width="2" xlink:href="#en39d"/></g><g><use fill="#fff" fill-opacity="0" stroke="#939598" stroke-linecap="round" stroke-linejoin="round" stroke-miterlimit="50" stroke-width="2" xlink:href="#en39e"/></g><g><use fill="#fff" fill-opacity="0" stroke="#939598" stroke-linecap="round" stroke-linejoin="round" stroke-miterlimit="50" stroke-width="2" xlink:href="#en39f"/></g><g><use fill="#fff" fill-opacity="0" stroke="#939598" stroke-linecap="round" stroke-linejoin="round" stroke-miterlimit="50" stroke-width="2" xlink:href="#en39g"/></g><g><use fill="#fff" fill-opacity="0" stroke="#939598" stroke-linecap="round" stroke-linejoin="round" stroke-miterlimit="50" stroke-width="2" xlink:href="#en39h"/></g><g><use fill="#fff" fill-opacity="0" stroke="#939598" stroke-linecap="round" stroke-linejoin="round" stroke-miterlimit="50" stroke-width="2" xlink:href="#en39i"/></g><g><use fill="#fff" fill-opacity="0" stroke="#939598" stroke-linecap="round" stroke-linejoin="round" stroke-miterlimit="50" stroke-width="2" xlink:href="#en39j"/></g><g><use fill="#fff" fill-opacity="0" stroke="#939598" stroke-linecap="round" stroke-linejoin="round" stroke-miterlimit="50" stroke-width="2" xlink:href="#en39k"/></g><g><use fill="#fff" fill-opacity="0" stroke="#939598" stroke-linecap="round" stroke-linejoin="round" stroke-miterlimit="50" stroke-width="2" xlink:href="#en39l"/></g><g><use fill="#fff" fill-opacity="0" stroke="#f26722" stroke-linecap="round" stroke-linejoin="round" stroke-miterlimit="50" stroke-width="2" xlink:href="#en39m"/></g><g><use fill="#fff" fill-opacity="0" stroke="#f26722" stroke-linecap="round" stroke-linejoin="round" stroke-miterlimit="50" stroke-width="2" xlink:href="#en39n"/></g><g><use fill="#fff" fill-opacity="0" stroke="#939598" stroke-linecap="round" stroke-linejoin="round" stroke-miterlimit="50" stroke-width="2" xlink:href="#en39o"/></g><g><use fill="#fff" fill-opacity="0" stroke="#939598" stroke-linecap="round" stroke-linejoin="round" stroke-miterlimit="50" stroke-width="2" xlink:href="#en39p"/></g><g><use fill="#fff" fill-opacity="0" stroke="#939598" stroke-linecap="round" stroke-linejoin="round" stroke-miterlimit="50" stroke-width="2" xlink:href="#en39q"/></g><g><use fill="#fff" fill-opacity="0" stroke="#939598" stroke-linecap="round" stroke-linejoin="round" stroke-miterlimit="50" stroke-width="2" xlink:href="#en39r"/></g><g><use fill="#fff" fill-opacity="0" stroke="#939598" stroke-linecap="round" stroke-linejoin="round" stroke-miterlimit="50" stroke-width="2" xlink:href="#en39s"/></g><g><use fill="#fff" fill-opacity="0" stroke="#939598" stroke-linecap="round" stroke-linejoin="round" stroke-miterlimit="50" stroke-width="2" xlink:href="#en39t"/></g><g><use fill="#fff" fill-opacity="0" stroke="#939598" stroke-linecap="round" stroke-linejoin="round" stroke-miterlimit="50" stroke-width="2" xlink:href="#en39u"/></g><g><use fill="#fff" fill-opacity="0" stroke="#939598" stroke-linecap="round" stroke-linejoin="round" stroke-miterlimit="50" stroke-width="2" xlink:href="#en39v"/></g><g><use fill="#fff" fill-opacity="0" stroke="#939598" stroke-linecap="round" stroke-linejoin="round" stroke-miterlimit="50" stroke-width="2" xlink:href="#en39w"/></g><g><use fill="#fff" fill-opacity="0" stroke="#939598" stroke-linecap="round" stroke-linejoin="round" stroke-miterlimit="50" stroke-width="2" xlink:href="#en39x"/></g><g><use fill="#fff" fill-opacity="0" stroke="#939598" stroke-linecap="round" stroke-linejoin="round" stroke-miterlimit="50" stroke-width="2" xlink:href="#en39y"/></g><g><use fill="#fff" fill-opacity="0" stroke="#f26722" stroke-linecap="round" stroke-linejoin="round" stroke-miterlimit="50" stroke-width="2" xlink:href="#en39z"/></g><g><use fill="#fff" fill-opacity="0" stroke="#f26722" stroke-linecap="round" stroke-linejoin="round" stroke-miterlimit="50" stroke-width="2" xlink:href="#en39A"/></g><g><use fill="#fff" fill-opacity="0" stroke="#939598" stroke-linecap="round" stroke-linejoin="round" stroke-miterlimit="50" stroke-width="2" xlink:href="#en39B"/></g><g><use fill="#fff" fill-opacity="0" stroke="#939598" stroke-linecap="round" stroke-linejoin="round" stroke-miterlimit="50" stroke-width="2" xlink:href="#en39C"/></g><g><use fill="#fff" fill-opacity="0" stroke="#939598" stroke-linecap="round" stroke-linejoin="round" stroke-miterlimit="50" stroke-width="2" xlink:href="#en39D"/></g><g><use fill="#fff" fill-opacity="0" stroke="#939598" stroke-linecap="round" stroke-linejoin="round" stroke-miterlimit="50" stroke-width="2" xlink:href="#en39E"/></g><g><use fill="#fff" fill-opacity="0" stroke="#939598" stroke-linecap="round" stroke-linejoin="round" stroke-miterlimit="50" stroke-width="2" xlink:href="#en39F"/></g><g><use fill="#fff" fill-opacity="0" stroke="#939598" stroke-linecap="round" stroke-linejoin="round" stroke-miterlimit="50" stroke-width="2" xlink:href="#en39G"/></g><g><use fill="#fff" fill-opacity="0" stroke="#939598" stroke-linecap="round" stroke-linejoin="round" stroke-miterlimit="50" stroke-width="2" xlink:href="#en39H"/></g><g><use fill="#fff" fill-opacity="0" stroke="#939598" stroke-linecap="round" stroke-linejoin="round" stroke-miterlimit="50" stroke-width="2" xlink:href="#en39I"/></g><g><use fill="#fff" fill-opacity="0" stroke="#939598" stroke-linecap="round" stroke-linejoin="round" stroke-miterlimit="50" stroke-width="2" xlink:href="#en39J"/></g><g><use fill="#fff" fill-opacity="0" stroke="#939598" stroke-linecap="round" stroke-linejoin="round" stroke-miterlimit="50" stroke-width="2" xlink:href="#en39K"/></g><g><use fill="#fff" fill-opacity="0" stroke="#939598" stroke-linecap="round" stroke-linejoin="round" stroke-miterlimit="50" stroke-width="2" xlink:href="#en39L"/></g><g><use fill="#fff" fill-opacity="0" stroke="#939598" stroke-linecap="round" stroke-linejoin="round" stroke-miterlimit="50" stroke-width="2" xlink:href="#en39M"/></g><g><use fill="#fff" fill-opacity="0" stroke="#939598" stroke-linecap="round" stroke-linejoin="round" stroke-miterlimit="50" stroke-width="2" xlink:href="#en39N"/></g><g><use fill="#fff" fill-opacity="0" stroke="#f26722" stroke-linecap="round" stroke-linejoin="round" stroke-miterlimit="50" stroke-width="2" xlink:href="#en39O"/></g></g></g></svg>