<svg xmlns="http://www.w3.org/2000/svg" xmlns:xlink="http://www.w3.org/1999/xlink" width="182" height="129" viewBox="0 0 182 129"><defs><path id="dvv8a" d="M244 425a12 12 0 0 1 12-12h158a12 12 0 0 1 12 12v105a12 12 0 0 1-12 12H256a12 12 0 0 1-12-12z"/><path id="dvv8b" d="M253 425c0-1.1.9-2 2-2h160a2 2 0 0 1 2 2v105a2 2 0 0 1-2 2H255a2 2 0 0 1-2-2z"/><path id="dvv8e" d="M339 424v41.01"/><path id="dvv8f" d="M339 497v34.01"/><path id="dvv8g" d="M254 444h84"/><path id="dvv8h" d="M254 522l74-39"/><path id="dvv8i" d="M345 474l71-37"/><path id="dvv8j" d="M316 424l-49 107"/><path id="dvv8k" d="M370 424l28 107"/><path id="dvv8l" d="M339 496l-23 8 23-39m0 0l23 39-23-8"/><clipPath id="dvv8c"><use fill="#fff" xlink:href="#dvv8a"/></clipPath><clipPath id="dvv8d"><use fill="#fff" xlink:href="#dvv8b"/></clipPath></defs><g><g transform="translate(-244 -413)"><g><use fill="#fff" fill-opacity="0" stroke="#939598" stroke-miterlimit="50" stroke-width="4" clip-path="url(&quot;#dvv8c&quot;)" xlink:href="#dvv8a"/></g><g><use fill="#fff" fill-opacity="0" stroke="#939598" stroke-miterlimit="50" stroke-width="4" clip-path="url(&quot;#dvv8d&quot;)" xlink:href="#dvv8b"/></g><g><use fill="#fff" fill-opacity="0" stroke="#939598" stroke-miterlimit="50" stroke-width="2" xlink:href="#dvv8e"/></g><g><use fill="#fff" fill-opacity="0" stroke="#939598" stroke-miterlimit="50" stroke-width="2" xlink:href="#dvv8f"/></g><g><use fill="#fff" fill-opacity="0" stroke="#939598" stroke-miterlimit="50" stroke-width="2" xlink:href="#dvv8g"/></g><g><use fill="#fff" fill-opacity="0" stroke="#939598" stroke-miterlimit="50" stroke-width="2" xlink:href="#dvv8h"/></g><g><use fill="#fff" fill-opacity="0" stroke="#939598" stroke-miterlimit="50" stroke-width="2" xlink:href="#dvv8i"/></g><g><use fill="#fff" fill-opacity="0" stroke="#939598" stroke-miterlimit="50" stroke-width="2" xlink:href="#dvv8j"/></g><g><use fill="#fff" fill-opacity="0" stroke="#939598" stroke-miterlimit="50" stroke-width="2" xlink:href="#dvv8k"/></g><g><use fill="#fff" fill-opacity="0" stroke="#f26722" stroke-miterlimit="50" stroke-width="2" xlink:href="#dvv8l"/></g></g></g></svg>